<?xml version="1.0" encoding="UTF-8"?>
<svg id="_レイヤー_2" data-name="レイヤー 2" xmlns="http://www.w3.org/2000/svg" viewBox="0 0 709.3 425.88">
  <defs>
    <style>
      .cls-1 {
        fill: #f1d6d7;
      }

      .cls-2 {
        fill: #b6b0c4;
      }

      .cls-3 {
        fill: #e298aa;
      }

      .cls-4 {
        fill: #839bb2;
      }

      .cls-5 {
        fill: #fff;
        opacity: .36;
      }
    </style>
  </defs>
  <g id="_データ貼付け" data-name="データ貼付け">
    <g>
      <path class="cls-2" d="m458.6,0c-8.61,16.15-24.34,29.29-40.09,37.98-44.93,21.15-98.01,24.07-131.08,57.73,30.47-11.89,63.72-15.79,89.99-.57,37.07,24.23,76.58,53.63,117.03,76.54,70.61,39.98,144.1,60.16,212.59-1.56V0h-248.43Z"/>
      <path class="cls-1" d="m320.98,341.4c-63.2-20.8-131.16,40.55-188.04,83h267.77c-32.42-22.03-61.86-47.39-79.73-83Z"/>
      <path class="cls-1" d="m320.98,341.4c-6.71-13.37-11.8-28.18-14.79-44.81-7.08-53.91-75.08-65.45-128.82-88.46C124.57,238.18,62.78,250.37,0,252.62v171.77h132.93c56.88-42.45,124.85-103.8,188.04-83Z"/>
      <path class="cls-5" d="m78.67,165.44c27.17,17.51,41.21,35.74,45.84,54.29,0,.02,0,.05.01.07.47,1.89.84,3.78,1.11,5.68.06.4.08.81.13,1.22.19,1.51.35,3.03.42,4.55.03.57.02,1.15.03,1.72.03,1.35.03,2.7-.03,4.06-.03.66-.09,1.33-.14,2-.1,1.27-.21,2.53-.38,3.8-.1.72-.22,1.44-.34,2.16-.2,1.22-.43,2.43-.69,3.65-.17.75-.35,1.51-.54,2.26-.15.61-.26,1.21-.43,1.82-.02,0-.05,0-.07,0-13.52,49.09-76.54,98.79-123.6,142.05V42.68c14.29,43.36,24.97,85.68,78.67,122.76Z"/>
      <path class="cls-4" d="m0,0v252.62c62.78-2.26,124.57-14.44,177.37-44.5,37.48-21.34,70.43-51.67,95.94-93.92,4.12-7.07,8.88-13.15,14.12-18.49,33.07-33.66,86.15-36.58,131.08-57.73C434.26,29.29,449.99,16.15,458.6,0H0Z"/>
      <path class="cls-5" d="m585.76,28.61c-17.62,9.88-35.97,14.99-54.64,16.67-.02,0-.05,0-.07,0-1.9.17-3.81.3-5.72.4-.41.02-.82.03-1.22.05-1.52.07-3.05.13-4.58.15-.58.01-1.16,0-1.73.01-1.36,0-2.72.01-4.08-.01-.67-.01-1.34-.03-2.01-.05-1.27-.04-2.55-.08-3.83-.14-.72-.04-1.45-.08-2.18-.12-1.22-.07-2.45-.15-3.67-.25-.76-.06-1.52-.13-2.28-.19-.61-.06-1.22-.1-1.83-.16,0,0,0-.02,0-.03-49.41-4.92-99.43-27.84-142.96-44.95h354.33c-43.64,5.2-86.23,9.08-123.54,28.61Z"/>
      <path class="cls-3" d="m580.15,405.47c-65.75-24.5-109.58-92.55-93.15-163.33,4.47-23.71,9.74-48.21,7.44-70.46-40.45-22.91-79.96-52.31-117.03-76.54-26.26-15.22-59.51-11.33-89.99.57-5.24,5.33-10,11.41-14.12,18.49-25.51,42.25-58.46,72.58-95.94,93.92,7.49,3.21,14.99,6.4,22.36,9.67,49.24,21.83,77.99,70.62,76.16,121.22-.53,14.78-3.65,29.71-9.66,44.18-4.46,10.74-8.97,23.2-13.47,41.2h341.37c-.41-8.29-5.67-15.62-13.99-18.93Z"/>
      <path class="cls-4" d="m494.45,171.68c2.3,22.25-2.97,46.75-7.44,70.46-16.44,70.78,27.4,138.83,93.15,163.33,8.32,3.31,13.58,10.64,13.99,18.93h112.89v-254.27c-68.49,61.72-141.98,41.54-212.59,1.56Z"/>
      <path class="cls-5" d="m586.46,371.56c-14.74-18.76-30.08-28.45-45.69-31.65-.02,0-.04,0-.06-.01-1.59-.32-3.18-.58-4.78-.77-.34-.04-.68-.06-1.02-.09-1.27-.13-2.55-.24-3.83-.29-.48-.02-.97-.01-1.45-.02-1.14-.02-2.28-.02-3.41.02-.56.02-1.12.06-1.68.1-1.07.07-2.13.15-3.2.26-.61.07-1.21.15-1.82.23-1.02.14-2.05.29-3.07.48-.63.11-1.27.24-1.9.37-.51.1-1.02.18-1.53.3,0,.02,0,.03,0,.05-41.32,9.34-83.15,52.85-119.56,85.33h296.34c-36.5-9.87-72.12-17.24-103.32-54.32Z"/>
    </g>
  </g>
</svg>